# xmcd
# 
# Track frame offsets:
#     150
#     20855
#     47310
#     65495
#     86767
#     112270
#     129402
#     157582
#     167755
#     189887
#     211307
#     226812
#     249757
#     261190
# 
# Disc length: 3665
# 
# Revision: 0
# Processed by: cddbd v1.5.2PL0 Copyright (c) Steve Scherf et al.
# Submitted via: fre:ac v1.0.31
# 
DISCID=af0e4f0e
DTITLE=Diana Krall - LOVE SCENES
DYEAR=1997
DGENRE=Jazz
TTITLE0=All or Nothing at All
TTITLE1=Peel Me a Grape
TTITLE2=I Don't Know Enough about You
TTITLE3=I Miss You So
TTITLE4=They Can't Take That Away from Me
TTITLE5=Lost Mind
TTITLE6=I Don't Stand a Ghost of a Chance with You
TTITLE7=You're Getting to be a Habit with Me
TTITLE8=Gentle Rain
TTITLE9=How Deep is the Ocean (How High is the Sky)
TTITLE10=My Love Is
TTITLE11=Garden in the Rain
TTITLE12=That Old Feeling
TTITLE13=Another Spring
EXTD=YEAR: 1997
EXTT0=
EXTT1=
EXTT2=
EXTT3=
EXTT4=
EXTT5=
EXTT6=
EXTT7=
EXTT8=
EXTT9=
EXTT10=
EXTT11=
EXTT12=
EXTT13=
PLAYORDER=
